<mxfile host="app.diagrams.net" modified="2020-06-04T17:42:04.904Z" agent="5.0 (Macintosh)" etag="xiPIkYwwRnC90i1JBP3C" version="13.1.14" type="github">
  <diagram id="WXLx_NZ0zr2IAM8uKvPv" name="Page-1">
    <mxGraphModel dx="1143" dy="628" grid="1" gridSize="10" guides="1" tooltips="1" connect="1" arrows="1" fold="1" page="1" pageScale="1" pageWidth="850" pageHeight="1100" math="0" shadow="0">
      <root>
        <mxCell id="0" />
        <mxCell id="1" parent="0" />
        <mxCell id="7Pyvd2Up-SaeCEV3h4uc-7" value="" style="edgeStyle=orthogonalEdgeStyle;rounded=0;orthogonalLoop=1;jettySize=auto;html=1;" parent="1" source="7Pyvd2Up-SaeCEV3h4uc-3" target="7Pyvd2Up-SaeCEV3h4uc-4" edge="1">
          <mxGeometry relative="1" as="geometry" />
        </mxCell>
        <mxCell id="7Pyvd2Up-SaeCEV3h4uc-3" value="&lt;div&gt;Link new &lt;br&gt;&lt;/div&gt;&lt;div&gt;bank &lt;br&gt;&lt;/div&gt;&lt;div&gt;account&lt;/div&gt;" style="shape=parallelogram;html=1;strokeWidth=2;perimeter=parallelogramPerimeter;whiteSpace=wrap;rounded=1;arcSize=12;size=0.23;" parent="1" vertex="1">
          <mxGeometry x="150" y="186" width="100" height="60" as="geometry" />
        </mxCell>
        <mxCell id="7Pyvd2Up-SaeCEV3h4uc-8" value="" style="edgeStyle=orthogonalEdgeStyle;rounded=0;orthogonalLoop=1;jettySize=auto;html=1;" parent="1" source="7Pyvd2Up-SaeCEV3h4uc-4" target="7Pyvd2Up-SaeCEV3h4uc-5" edge="1">
          <mxGeometry relative="1" as="geometry" />
        </mxCell>
        <mxCell id="7Pyvd2Up-SaeCEV3h4uc-4" value="&lt;div&gt;Authenticated bank account: access token received&lt;/div&gt;" style="rounded=1;whiteSpace=wrap;html=1;absoluteArcSize=1;arcSize=14;strokeWidth=2;" parent="1" vertex="1">
          <mxGeometry x="310" y="166" width="100" height="100" as="geometry" />
        </mxCell>
        <mxCell id="7Pyvd2Up-SaeCEV3h4uc-9" value="" style="edgeStyle=orthogonalEdgeStyle;rounded=0;orthogonalLoop=1;jettySize=auto;html=1;" parent="1" source="7Pyvd2Up-SaeCEV3h4uc-5" target="7Pyvd2Up-SaeCEV3h4uc-6" edge="1">
          <mxGeometry relative="1" as="geometry" />
        </mxCell>
        <mxCell id="7Pyvd2Up-SaeCEV3h4uc-18" style="edgeStyle=orthogonalEdgeStyle;rounded=0;orthogonalLoop=1;jettySize=auto;html=1;exitX=0.5;exitY=0;exitDx=0;exitDy=0;entryX=0.5;entryY=1;entryDx=0;entryDy=0;" parent="1" source="7Pyvd2Up-SaeCEV3h4uc-5" target="7Pyvd2Up-SaeCEV3h4uc-11" edge="1">
          <mxGeometry relative="1" as="geometry" />
        </mxCell>
        <mxCell id="7Pyvd2Up-SaeCEV3h4uc-5" value="Get all related accounts store against user" style="rounded=1;whiteSpace=wrap;html=1;absoluteArcSize=1;arcSize=14;strokeWidth=2;" parent="1" vertex="1">
          <mxGeometry x="470" y="166" width="100" height="100" as="geometry" />
        </mxCell>
        <mxCell id="7Pyvd2Up-SaeCEV3h4uc-19" style="edgeStyle=orthogonalEdgeStyle;rounded=0;orthogonalLoop=1;jettySize=auto;html=1;exitX=0.5;exitY=1;exitDx=0;exitDy=0;entryX=0.5;entryY=0;entryDx=0;entryDy=0;entryPerimeter=0;" parent="1" source="7Pyvd2Up-SaeCEV3h4uc-6" target="7Pyvd2Up-SaeCEV3h4uc-10" edge="1">
          <mxGeometry relative="1" as="geometry" />
        </mxCell>
        <mxCell id="7Pyvd2Up-SaeCEV3h4uc-6" value="&lt;div&gt;Select &lt;br&gt;&lt;/div&gt;&lt;div&gt;required&lt;/div&gt;&lt;div&gt;accounts &lt;/div&gt;" style="shape=parallelogram;html=1;strokeWidth=2;perimeter=parallelogramPerimeter;whiteSpace=wrap;rounded=1;arcSize=12;size=0.23;" parent="1" vertex="1">
          <mxGeometry x="630" y="186" width="100" height="60" as="geometry" />
        </mxCell>
        <mxCell id="7Pyvd2Up-SaeCEV3h4uc-26" style="edgeStyle=orthogonalEdgeStyle;rounded=0;orthogonalLoop=1;jettySize=auto;html=1;exitX=0;exitY=0.5;exitDx=0;exitDy=0;exitPerimeter=0;entryX=1;entryY=0.5;entryDx=0;entryDy=0;" parent="1" source="7Pyvd2Up-SaeCEV3h4uc-10" target="7Pyvd2Up-SaeCEV3h4uc-23" edge="1">
          <mxGeometry relative="1" as="geometry" />
        </mxCell>
        <mxCell id="7Pyvd2Up-SaeCEV3h4uc-29" value="Yes" style="edgeLabel;html=1;align=center;verticalAlign=middle;resizable=0;points=[];" parent="7Pyvd2Up-SaeCEV3h4uc-26" vertex="1" connectable="0">
          <mxGeometry x="-0.1" y="2" relative="1" as="geometry">
            <mxPoint y="-3" as="offset" />
          </mxGeometry>
        </mxCell>
        <mxCell id="7Pyvd2Up-SaeCEV3h4uc-34" style="edgeStyle=orthogonalEdgeStyle;rounded=0;orthogonalLoop=1;jettySize=auto;html=1;exitX=0.5;exitY=1;exitDx=0;exitDy=0;exitPerimeter=0;entryX=0.5;entryY=0;entryDx=0;entryDy=0;" parent="1" source="7Pyvd2Up-SaeCEV3h4uc-10" target="7Pyvd2Up-SaeCEV3h4uc-31" edge="1">
          <mxGeometry relative="1" as="geometry" />
        </mxCell>
        <mxCell id="7Pyvd2Up-SaeCEV3h4uc-35" style="edgeStyle=orthogonalEdgeStyle;rounded=0;orthogonalLoop=1;jettySize=auto;html=1;exitX=0.5;exitY=1;exitDx=0;exitDy=0;exitPerimeter=0;entryX=0.75;entryY=0;entryDx=0;entryDy=0;" parent="1" source="7Pyvd2Up-SaeCEV3h4uc-10" target="7Pyvd2Up-SaeCEV3h4uc-32" edge="1">
          <mxGeometry relative="1" as="geometry" />
        </mxCell>
        <mxCell id="7Pyvd2Up-SaeCEV3h4uc-36" value="No" style="edgeLabel;html=1;align=center;verticalAlign=middle;resizable=0;points=[];" parent="7Pyvd2Up-SaeCEV3h4uc-35" vertex="1" connectable="0">
          <mxGeometry x="-0.8492" relative="1" as="geometry">
            <mxPoint as="offset" />
          </mxGeometry>
        </mxCell>
        <mxCell id="7Pyvd2Up-SaeCEV3h4uc-10" value="Accounts selected?" style="strokeWidth=2;html=1;shape=mxgraph.flowchart.decision;whiteSpace=wrap;" parent="1" vertex="1">
          <mxGeometry x="630" y="316" width="100" height="100" as="geometry" />
        </mxCell>
        <mxCell id="7Pyvd2Up-SaeCEV3h4uc-11" value="accounts" style="swimlane;fontStyle=0;childLayout=stackLayout;horizontal=1;startSize=26;horizontalStack=0;resizeParent=1;resizeParentMax=0;resizeLast=0;collapsible=1;marginBottom=0;align=center;fontSize=14;" parent="1" vertex="1">
          <mxGeometry x="470" y="12" width="100" height="130" as="geometry" />
        </mxCell>
        <mxCell id="7Pyvd2Up-SaeCEV3h4uc-12" value="account_id" style="text;strokeColor=none;fillColor=none;spacingLeft=4;spacingRight=4;overflow=hidden;rotatable=0;points=[[0,0.5],[1,0.5]];portConstraint=eastwest;fontSize=12;" parent="7Pyvd2Up-SaeCEV3h4uc-11" vertex="1">
          <mxGeometry y="26" width="100" height="26" as="geometry" />
        </mxCell>
        <mxCell id="7Pyvd2Up-SaeCEV3h4uc-16" value="official_name" style="text;strokeColor=none;fillColor=none;spacingLeft=4;spacingRight=4;overflow=hidden;rotatable=0;points=[[0,0.5],[1,0.5]];portConstraint=eastwest;fontSize=12;" parent="7Pyvd2Up-SaeCEV3h4uc-11" vertex="1">
          <mxGeometry y="52" width="100" height="26" as="geometry" />
        </mxCell>
        <mxCell id="7Pyvd2Up-SaeCEV3h4uc-14" value="mask" style="text;strokeColor=none;fillColor=none;spacingLeft=4;spacingRight=4;overflow=hidden;rotatable=0;points=[[0,0.5],[1,0.5]];portConstraint=eastwest;fontSize=12;" parent="7Pyvd2Up-SaeCEV3h4uc-11" vertex="1">
          <mxGeometry y="78" width="100" height="26" as="geometry" />
        </mxCell>
        <mxCell id="7Pyvd2Up-SaeCEV3h4uc-17" value="selected" style="text;strokeColor=none;fillColor=none;spacingLeft=4;spacingRight=4;overflow=hidden;rotatable=0;points=[[0,0.5],[1,0.5]];portConstraint=eastwest;fontSize=12;" parent="7Pyvd2Up-SaeCEV3h4uc-11" vertex="1">
          <mxGeometry y="104" width="100" height="26" as="geometry" />
        </mxCell>
        <mxCell id="7Pyvd2Up-SaeCEV3h4uc-22" style="edgeStyle=orthogonalEdgeStyle;rounded=0;orthogonalLoop=1;jettySize=auto;html=1;exitX=1;exitY=0.5;exitDx=0;exitDy=0;exitPerimeter=0;entryX=0;entryY=0.5;entryDx=0;entryDy=0;" parent="1" source="7Pyvd2Up-SaeCEV3h4uc-21" target="7Pyvd2Up-SaeCEV3h4uc-3" edge="1">
          <mxGeometry relative="1" as="geometry" />
        </mxCell>
        <mxCell id="7Pyvd2Up-SaeCEV3h4uc-21" value="Start" style="strokeWidth=2;html=1;shape=mxgraph.flowchart.start_2;whiteSpace=wrap;" parent="1" vertex="1">
          <mxGeometry x="30" y="184" width="60" height="64" as="geometry" />
        </mxCell>
        <mxCell id="7Pyvd2Up-SaeCEV3h4uc-27" style="edgeStyle=orthogonalEdgeStyle;rounded=0;orthogonalLoop=1;jettySize=auto;html=1;exitX=0;exitY=0.5;exitDx=0;exitDy=0;entryX=1;entryY=0.5;entryDx=0;entryDy=0;" parent="1" source="7Pyvd2Up-SaeCEV3h4uc-23" target="7Pyvd2Up-SaeCEV3h4uc-24" edge="1">
          <mxGeometry relative="1" as="geometry" />
        </mxCell>
        <mxCell id="7Pyvd2Up-SaeCEV3h4uc-23" value="&lt;div&gt;Get all transactions filtered by selected accounts and store&lt;/div&gt;" style="rounded=1;whiteSpace=wrap;html=1;absoluteArcSize=1;arcSize=14;strokeWidth=2;" parent="1" vertex="1">
          <mxGeometry x="470" y="316" width="100" height="100" as="geometry" />
        </mxCell>
        <mxCell id="7Pyvd2Up-SaeCEV3h4uc-28" style="edgeStyle=orthogonalEdgeStyle;rounded=0;orthogonalLoop=1;jettySize=auto;html=1;exitX=0;exitY=0.5;exitDx=0;exitDy=0;entryX=1;entryY=0.5;entryDx=0;entryDy=0;" parent="1" source="7Pyvd2Up-SaeCEV3h4uc-24" target="7Pyvd2Up-SaeCEV3h4uc-25" edge="1">
          <mxGeometry relative="1" as="geometry" />
        </mxCell>
        <mxCell id="7Pyvd2Up-SaeCEV3h4uc-24" value="Parse received transactions to identify subscriptions " style="rounded=1;whiteSpace=wrap;html=1;absoluteArcSize=1;arcSize=14;strokeWidth=2;" parent="1" vertex="1">
          <mxGeometry x="310" y="316" width="100" height="100" as="geometry" />
        </mxCell>
        <mxCell id="7Pyvd2Up-SaeCEV3h4uc-39" style="edgeStyle=orthogonalEdgeStyle;rounded=0;orthogonalLoop=1;jettySize=auto;html=1;exitX=0.5;exitY=1;exitDx=0;exitDy=0;" parent="1" source="7Pyvd2Up-SaeCEV3h4uc-25" target="7Pyvd2Up-SaeCEV3h4uc-38" edge="1">
          <mxGeometry relative="1" as="geometry" />
        </mxCell>
        <mxCell id="7Pyvd2Up-SaeCEV3h4uc-25" value="Store all identified subsciptions against the user and send an email notification" style="rounded=1;whiteSpace=wrap;html=1;absoluteArcSize=1;arcSize=14;strokeWidth=2;" parent="1" vertex="1">
          <mxGeometry x="150" y="316" width="100" height="100" as="geometry" />
        </mxCell>
        <mxCell id="7Pyvd2Up-SaeCEV3h4uc-33" style="edgeStyle=orthogonalEdgeStyle;rounded=0;orthogonalLoop=1;jettySize=auto;html=1;exitX=0;exitY=0.5;exitDx=0;exitDy=0;entryX=0.5;entryY=1;entryDx=0;entryDy=0;" parent="1" source="7Pyvd2Up-SaeCEV3h4uc-31" target="7Pyvd2Up-SaeCEV3h4uc-23" edge="1">
          <mxGeometry relative="1" as="geometry">
            <Array as="points">
              <mxPoint x="520" y="520" />
            </Array>
          </mxGeometry>
        </mxCell>
        <mxCell id="7Pyvd2Up-SaeCEV3h4uc-31" value="&lt;div&gt;Selected all &lt;br&gt;&lt;/div&gt;&lt;div&gt;by default&lt;/div&gt;" style="shape=parallelogram;html=1;strokeWidth=2;perimeter=parallelogramPerimeter;whiteSpace=wrap;rounded=1;arcSize=12;size=0.23;" parent="1" vertex="1">
          <mxGeometry x="530" y="490" width="100" height="60" as="geometry" />
        </mxCell>
        <mxCell id="7Pyvd2Up-SaeCEV3h4uc-40" style="edgeStyle=orthogonalEdgeStyle;rounded=0;orthogonalLoop=1;jettySize=auto;html=1;exitX=0.5;exitY=1;exitDx=0;exitDy=0;entryX=0.5;entryY=1;entryDx=0;entryDy=0;entryPerimeter=0;" parent="1" source="7Pyvd2Up-SaeCEV3h4uc-32" target="7Pyvd2Up-SaeCEV3h4uc-38" edge="1">
          <mxGeometry relative="1" as="geometry" />
        </mxCell>
        <mxCell id="7Pyvd2Up-SaeCEV3h4uc-32" value="Delete main account" style="shape=parallelogram;html=1;strokeWidth=2;perimeter=parallelogramPerimeter;whiteSpace=wrap;rounded=1;arcSize=12;size=0.23;" parent="1" vertex="1">
          <mxGeometry x="730" y="490" width="100" height="60" as="geometry" />
        </mxCell>
        <mxCell id="7Pyvd2Up-SaeCEV3h4uc-37" value="or" style="verticalLabelPosition=bottom;verticalAlign=top;html=1;shape=mxgraph.flowchart.summing_function;" parent="1" vertex="1">
          <mxGeometry x="652.5" y="490" width="55" height="50" as="geometry" />
        </mxCell>
        <mxCell id="7Pyvd2Up-SaeCEV3h4uc-38" value="END" style="strokeWidth=2;html=1;shape=mxgraph.flowchart.terminator;whiteSpace=wrap;" parent="1" vertex="1">
          <mxGeometry x="150" y="490" width="100" height="60" as="geometry" />
        </mxCell>
        <mxCell id="7Pyvd2Up-SaeCEV3h4uc-41" value="- Show all connected accounts with the main bank account" style="text;html=1;align=center;verticalAlign=middle;resizable=0;points=[];autosize=1;" parent="1" vertex="1">
          <mxGeometry x="30" y="640" width="330" height="20" as="geometry" />
        </mxCell>
        <mxCell id="ULzGCcfgna8US4di8cIV-1" value="&lt;b&gt;Plaid Integration workflow&lt;/b&gt;" style="text;html=1;align=center;verticalAlign=middle;resizable=0;points=[];autosize=1;" vertex="1" parent="1">
          <mxGeometry x="25" y="40" width="160" height="20" as="geometry" />
        </mxCell>
      </root>
    </mxGraphModel>
  </diagram>
</mxfile>
